<?xml version="1.0" standalone="no"?>
<!DOCTYPE svg PUBLIC "-//W3C//DTD SVG 20010904//EN"
 "http://www.w3.org/TR/2001/REC-SVG-20010904/DTD/svg10.dtd">
<svg version="1.0" xmlns="http://www.w3.org/2000/svg"
 width="166.000000pt" height="159.000000pt" viewBox="0 0 166.000000 159.000000"
 preserveAspectRatio="xMidYMid meet">

<g transform="translate(0.000000,159.000000) scale(0.100000,-0.100000)"
fill="#000000" stroke="none">
<path d="M653 1536 c-193 -44 -380 -181 -482 -353 -38 -64 -81 -170 -81 -200
0 -10 28 -13 130 -13 119 0 130 2 130 18 0 33 49 163 86 230 47 84 143 179
219 217 55 28 68 30 165 30 94 0 110 -3 156 -27 83 -44 149 -102 199 -178 49
-74 98 -186 110 -252 l7 -38 130 0 131 0 -7 31 c-16 83 -101 231 -180 318 -76
82 -199 158 -326 201 -84 29 -293 37 -387 16z"/>
<path d="M30 911 c0 -6 5 -13 10 -16 6 -4 10 -62 10 -140 0 -78 -4 -136 -10
-140 -18 -11 -10 -25 15 -25 25 0 33 14 15 25 -6 4 -10 57 -10 126 0 66 4 118
8 115 4 -2 32 -63 62 -135 29 -72 58 -130 64 -128 5 2 35 64 65 138 l56 134 3
-125 c2 -79 -1 -126 -8 -128 -27 -9 -5 -22 40 -22 28 0 50 5 50 10 0 6 -4 10
-10 10 -14 0 -13 277 0 285 18 11 0 25 -35 25 -33 0 -33 0 -85 -125 -29 -69
-54 -125 -55 -125 -2 0 -27 56 -55 125 l-53 125 -38 0 c-22 0 -39 -4 -39 -9z"/>
<path d="M460 870 c0 -27 5 -50 10 -50 6 0 10 9 10 19 0 25 45 61 76 61 l24 0
0 -133 c0 -104 -3 -137 -16 -155 -15 -22 -15 -22 35 -22 50 0 60 6 42 25 -6 6
-11 72 -13 148 l-3 137 28 0 c30 0 77 -39 77 -65 0 -8 5 -15 11 -15 6 0 9 19
7 48 l-3 47 -142 3 -143 3 0 -51z"/>
<path d="M951 879 c-10 -24 -40 -95 -66 -156 -28 -68 -52 -113 -61 -113 -8 0
-14 -4 -14 -10 0 -5 16 -10 36 -10 31 0 35 2 24 14 -9 12 -9 21 2 43 12 26 18
28 80 31 60 3 68 1 78 -18 7 -12 9 -33 6 -46 -6 -23 -4 -24 49 -24 30 0 55 5
55 10 0 6 -6 10 -14 10 -9 0 -38 57 -76 148 -34 81 -66 151 -71 156 -5 6 -16
-8 -28 -35z m58 -176 c1 -9 -17 -13 -59 -13 l-60 0 21 51 c40 102 39 102 70
34 15 -33 28 -66 28 -72z"/>
<path d="M1372 906 c-61 -28 -66 -111 -10 -146 17 -10 60 -26 97 -35 81 -20
111 -38 111 -68 0 -37 -19 -47 -93 -47 -80 0 -104 10 -122 53 l-14 32 -1 -52
0 -53 106 0 c103 0 106 1 135 29 34 34 38 77 12 110 -12 14 -53 32 -117 51
-98 28 -116 39 -116 72 0 35 28 48 109 48 91 0 121 -14 101 -47 -16 -25 -6
-56 17 -51 28 5 28 51 0 83 -21 26 -31 28 -103 32 -55 2 -89 -1 -112 -11z"/>
<path d="M1211 636 c-15 -18 -3 -46 19 -46 10 0 21 7 24 16 6 16 -9 44 -24 44
-4 0 -13 -6 -19 -14z"/>
<path d="M120 502 c0 -4 21 -43 46 -87 54 -93 171 -213 257 -264 141 -83 270
-115 432 -108 277 13 513 165 636 410 l29 57 -128 0 -128 0 -13 -37 c-23 -67
-91 -173 -146 -228 -31 -31 -82 -67 -122 -86 -63 -32 -74 -34 -168 -34 -90 0
-105 3 -155 29 -113 59 -198 154 -260 290 l-30 66 -125 0 c-69 0 -125 -3 -125
-8z"/>
</g>
</svg>
